<svg xmlns="http://www.w3.org/2000/svg" viewBox="0 0 720 480" role="img" aria-label="Laptop"><defs><linearGradient id="l1" x1="0" x2="1"><stop offset="0%" stop-color="#1A2516"/><stop offset="50%" stop-color="#58762F"/><stop offset="100%" stop-color="#234560"/></linearGradient></defs><ellipse cx="360" cy="420" rx="190" ry="22" fill="rgba(255,255,255,.09)"/><path d="M188 130h344c16 0 28 12 28 28v138c0 16-12 28-28 28H188c-16 0-28-12-28-28V158c0-16 12-28 28-28z" fill="#57616D" stroke="#8BD7FF" stroke-opacity=".25" stroke-width="3"/><rect x="196" y="150" width="328" height="116" rx="18" fill="url(#l1)"/><path d="M144 340h432c8 0 16 4 20 10l28 40H116l28-40c4-6 12-10 20-10z" fill="#90B8D7"/><path d="M130 390h460c8 0 14 6 14 14 0 8-6 14-14 14H130c-8 0-14-6-14-14 0-8 6-14 14-14z" fill="#EAEFF4"/><rect x="302" y="364" width="116" height="14" rx="7" fill="#68727B"/></svg>